HIERARCHY
ROOT Hips
{
    OFFSET 0.000000 0.000000 0.000000
    CHANNELS 6 Xposition Yposition Zposition Zrotation Xrotation Yrotation
    JOINT Spine
    {
        OFFSET -0.000000 8.312343 0.000000
        CHANNELS 3 Zrotation Xrotation Yrotation
        JOINT Spine1
        {
            OFFSET -0.000000 28.293047 0.000000
            CHANNELS 3 Zrotation Xrotation Yrotation
            JOINT Neck
            {
                OFFSET -0.000000 28.176853 2.561532
                CHANNELS 3 Zrotation Xrotation Yrotation
                JOINT Head
                {
                    OFFSET -0.000000 14.191803 -2.027400
                    CHANNELS 3 Zrotation Xrotation Yrotation
                    End Site
                    {
                        OFFSET -0.000000 25.342506 0.000000
                    }
                }
            }
            JOINT LeftShoulder
            {
                OFFSET 4.015815 26.370180 -0.268885
                CHANNELS 3 Zrotation Xrotation Yrotation
                JOINT LeftArm
                {
                    OFFSET 11.299099 0.000000 0.000000
                    CHANNELS 3 Zrotation Xrotation Yrotation
                    JOINT LeftForeArm
                    {
                        OFFSET 30.537071 0.000000 0.000000
                        CHANNELS 3 Zrotation Xrotation Yrotation
                        JOINT LeftHand
                        {
                            OFFSET 29.851767 0.000000 0.000000
                            CHANNELS 3 Zrotation Xrotation Yrotation
                            End Site
                            {
                                OFFSET 15.205504 0.000000 0.000000
                            }
                        }
                    }
                }
            }
            JOINT RightShoulder
            {
                OFFSET -4.091585 26.370180 -0.268885
                CHANNELS 3 Zrotation Xrotation Yrotation
                JOINT RightArm
                {
                    OFFSET -11.299099 0.000000 0.000000
                    CHANNELS 3 Zrotation Xrotation Yrotation
                    JOINT RightForeArm
                    {
                        OFFSET -30.537071 0.000000 0.000000
                        CHANNELS 3 Zrotation Xrotation Yrotation
                        JOINT RightHand
                        {
                            OFFSET -29.851767 0.000000 0.000000
                            CHANNELS 3 Zrotation Xrotation Yrotation
                            End Site
                            {
                                OFFSET -15.205504 0.000000 0.000000
                            }
                        }
                    }
                }
            }
        }
    }
    JOINT LeftUpLeg
    {
        OFFSET 10.137003 0.000000 0.000000
        CHANNELS 3 Zrotation Xrotation Yrotation
        JOINT LeftLeg
        {
            OFFSET -0.000000 -31.675148 0.000000
            CHANNELS 3 Zrotation Xrotation Yrotation
            JOINT LeftFoot
            {
                OFFSET -0.000000 -48.008553 0.000000
                CHANNELS 3 Zrotation Xrotation Yrotation
                JOINT LeftToeBase
                {
                    OFFSET -0.000000 -6.589051 15.205504
                    CHANNELS 3 Zrotation Xrotation Yrotation
                    End Site
                    {
                        OFFSET -0.000000 0.000000 4.054801
                    }
                }
            }
        }
    }
    JOINT RightUpLeg
    {
        OFFSET -10.137003 0.000000 0.000000
        CHANNELS 3 Zrotation Xrotation Yrotation
        JOINT RightLeg
        {
            OFFSET -0.000000 -31.675148 0.000000
            CHANNELS 3 Zrotation Xrotation Yrotation
            JOINT RightFoot
            {
                OFFSET -0.000000 -48.008553 0.000000
                CHANNELS 3 Zrotation Xrotation Yrotation
                JOINT RightToeBase
                {
                    OFFSET -0.000000 -6.589051 15.205504
                    CHANNELS 3 Zrotation Xrotation Yrotation
                    End Site
                    {
                        OFFSET -0.000000 0.000000 4.054801
                    }
                }
            }
        }
    }
}
MOTION
Frames:    14
Frame Time:    0.008333
99.092804    87.717766    -12.307188    -3.750488    -0.745549    84.044754    2.638724    -12.115537    -0.233033    -0.379665    0.737135    -0.510689    0.756413    26.828827    -4.840888    1.407288    -0.463619    -4.754269    12.004541    -0.352982    -4.707492    -11.873034    -4.702389    5.703857    5.211529    -3.535334    -3.482038    21.725615    -3.054348    1.684537    -12.096664    -0.095955    4.670090    16.052582    2.485695    14.847493    -6.385356    -1.499114    8.150836    -26.686583    -4.313074    13.730384    9.380913    2.584276    2.940691    -3.483464    -4.102867    12.335718    -7.663392    6.726317    19.786436    0.000000    0.000000    0.000000    -2.255549    3.486421    0.352233    2.815436    -3.704969    -4.313697    5.676051    0.607908    -9.350345    0.000000    0.000000    0.000000    
99.117783    87.714828    -12.292198    -3.730622    -0.747684    84.057777    2.622458    -12.111340    -0.243460    -0.369435    0.732019    -0.519516    0.702372    26.812174    -4.846298    1.493687    -0.460731    -4.752985    12.007920    -0.443064    -4.688958    -11.941977    -4.519393    5.728612    5.232533    -3.640958    -3.521786    21.892429    -3.138295    1.771213    -12.111753    -0.101640    4.658997    16.099432    2.403677    14.820933    -6.337865    -1.517120    8.117229    -26.686813    -4.328853    13.699588    9.394323    2.604001    2.931000    -3.490263    -4.088639    12.376845    -7.644416    6.732194    19.746698    0.000000    0.000000    0.000000    -2.250470    3.532600    0.332830    2.806516    -3.736829    -4.262252    5.718963    0.620238    -9.354796    0.000000    0.000000    0.000000    
99.134674    87.711777    -12.277871    -3.732641    -0.750465    84.093872    2.613420    -12.137139    -0.270966    -0.367375    0.758629    -0.546403    0.668315    26.796488    -4.837895    1.524036    -0.515475    -4.742684    11.981056    -0.480390    -4.646460    -11.951881    -4.435484    5.723143    5.147258    -3.845240    -3.593661    22.597235    -3.269638    2.077634    -12.133895    -0.099692    4.637925    16.144970    2.299105    14.823171    -6.307017    -1.526081    8.084289    -26.579626    -4.316614    13.650879    9.410972    2.589324    2.895686    -3.499306    -4.055771    12.301511    -7.659126    6.684729    19.832325    0.000000    0.000000    0.000000    -2.280241    3.552197    0.364547    2.884813    -3.704777    -4.195858    5.645009    0.540699    -9.500854    0.000000    0.000000    0.000000    
99.159813    87.709953    -12.264845    -3.720140    -0.742844    84.081886    2.584213    -12.161036    -0.284298    -0.305631    0.809026    -0.557437    0.520579    26.758207    -4.798364    1.617447    -0.538492    -4.702853    11.816099    -0.438252    -4.634029    -11.838890    -4.455108    5.770888    5.204726    -3.856113    -3.566718    22.101347    -3.316206    1.939415    -12.166517    -0.189379    4.600770    16.188393    2.215140    14.857564    -6.276336    -1.478913    8.006773    -26.476225    -4.274922    13.700832    9.407769    2.607416    2.929373    -3.498476    -4.036759    12.324163    -7.670160    6.681034    19.798796    0.000000    0.000000    0.000000    -2.285548    3.581913    0.365321    2.888064    -3.704939    -4.178844    5.655037    0.510506    -9.501445    0.000000    0.000000    0.000000    
99.178253    87.707199    -12.251213    -3.712103    -0.746128    84.087440    2.593951    -12.178418    -0.288427    -0.330604    0.843661    -0.562691    0.504967    26.660442    -4.797545    1.621249    -0.469980    -4.704524    11.827957    -0.469576    -4.604219    -11.899082    -4.341606    5.782421    5.245821    -4.013105    -3.610169    22.121901    -3.448334    2.048754    -12.186249    -0.207264    4.588151    16.227564    2.178844    14.847989    -6.236076    -1.486861    7.932804    -26.465687    -4.289371    13.705366    9.428629    2.612970    2.886420    -3.517003    -4.009112    12.270582    -7.658454    6.645449    19.894661    0.000000    0.000000    0.000000    -2.280908    3.603729    0.406132    2.894197    -3.702854    -4.186924    5.659544    0.488499    -9.533805    0.000000    0.000000    0.000000    
99.199516    87.704247    -12.240217    -3.702076    -0.738639    84.082397    2.594240    -12.195247    -0.282706    -0.358475    0.860795    -0.557271    0.511586    26.826298    -4.746075    1.664284    -0.771461    -4.638757    11.839823    -0.476269    -4.610610    -11.917420    -4.413850    5.785536    5.235312    -4.093174    -3.623086    22.228001    -3.517653    2.092428    -12.178902    -0.216928    4.586523    16.257755    2.108634    14.812198    -6.204705    -1.421582    7.877637    -26.492836    -4.246212    13.761450    9.424036    2.628361    2.863700    -3.514784    -3.988001    12.210779    -7.675287    6.598777    19.980095    0.000000    0.000000    0.000000    -2.279572    3.618256    0.380959    2.890118    -3.694778    -4.180274    5.652028    0.476013    -9.515344    0.000000    0.000000    0.000000    
99.227394    87.702583    -12.227972    -3.688267    -0.728000    84.053444    2.595415    -12.191410    -0.281356    -0.366688    0.832678    -0.555943    0.470572    26.893745    -4.717594    1.672275    -0.866107    -4.610435    11.794344    -0.450645    -4.598391    -11.894017    -4.411472    5.813913    5.217205    -4.199353    -3.644910    22.258217    -3.615115    2.132186    -12.188741    -0.203738    4.610369    16.271374    2.095704    14.807548    -6.172269    -1.385458    7.779466    -26.597027    -4.249573    13.839011    9.418459    2.670662    2.834405    -3.517334    -3.986345    12.185096    -7.666342    6.575233    20.061558    0.000000    0.000000    0.000000    -2.293868    3.643055    0.395614    2.899753    -3.686870    -4.154873    5.659214    0.446988    -9.506680    0.000000    0.000000    0.000000    
99.246582    87.699272    -12.216474    -3.688933    -0.719111    84.053795    2.587708    -12.219186    -0.283731    -0.370167    0.865353    -0.558042    0.407384    26.862026    -4.707132    1.729463    -0.887031    -4.597351    11.789191    -0.501999    -4.561595    -11.871751    -4.526169    5.773316    5.143374    -4.199639    -3.596312    22.304142    -3.630116    2.075895    -12.245296    -0.246051    4.585370    16.341293    2.073251    14.810181    -6.108046    -1.396807    7.685676    -26.841442    -4.300953    13.836352    9.417984    2.658148    2.803434    -3.521811    -3.947158    12.181540    -7.674554    6.526619    20.108179    0.000000    0.000000    0.000000    -2.296373    3.650577    0.398333    2.902446    -3.680957    -4.184901    5.638304    0.426427    -9.484111    0.000000    0.000000    0.000000    
99.267166    87.697220    -12.204790    -3.689073    -0.714696    84.036568    2.601237    -12.235383    -0.279991    -0.393687    0.860871    -0.555901    0.391104    26.850084    -4.706887    1.710496    -0.872314    -4.601888    11.790260    -0.538264    -4.531404    -11.903598    -4.500861    5.769919    5.152646    -4.224307    -3.617710    22.310747    -3.647928    2.103854    -12.239439    -0.225369    4.595728    16.332596    2.049781    14.813663    -6.076775    -1.323963    7.581673    -26.567087    -4.206919    13.862007    9.417636    2.658859    2.787715    -3.519547    -3.911873    12.116867    -7.681863    6.478020    20.198471    0.000000    0.000000    0.000000    -2.300303    3.661553    0.413152    2.908189    -3.677090    -4.164606    5.625728    0.412516    -9.494462    0.000000    0.000000    0.000000    
99.288628    87.692238    -12.192823    -3.684891    -0.708505    84.032211    2.619624    -12.248270    -0.288901    -0.436744    0.858382    -0.566743    0.356701    26.888721    -4.671948    1.720234    -0.937033    -4.566500    11.775161    -0.568288    -4.506373    -11.898642    -4.409450    5.807795    5.135516    -4.258144    -3.651653    22.383144    -3.678823    2.106925    -12.246588    -0.248406    4.622018    16.359781    2.078308    14.811492    -6.052942    -1.304738    7.475034    -26.610704    -4.191541    13.824247    9.427147    2.634377    2.938078    -3.542862    -3.827212    11.920238    -7.692679    6.403453    20.253325    0.000000    0.000000    0.000000    -2.296510    3.688687    0.395840    2.900616    -3.694160    -4.184893    5.631557    0.402592    -9.445345    0.000000    0.000000    0.000000    
99.308525    87.689690    -12.181373    -3.691379    -0.704983    84.026100    2.620024    -12.282608    -0.284536    -0.444568    0.879987    -0.563159    0.323449    26.870710    -4.679758    1.735801    -0.931285    -4.575880    11.770435    -0.576500    -4.497281    -11.911222    -4.404224    5.803558    5.121131    -4.251081    -3.641445    22.414202    -3.686189    2.035645    -12.273247    -0.261048    4.607003    16.381744    2.113259    14.806852    -6.004978    -1.386515    7.406718    -27.015038    -4.286407    13.638872    9.440631    2.635702    2.934181    -3.560400    -3.802393    11.810877    -7.709270    6.350855    20.354969    0.000000    0.000000    0.000000    -2.300955    3.704739    0.406949    2.914263    -3.708409    -4.158690    5.603014    0.383341    -9.476955    0.000000    0.000000    0.000000    
99.329491    87.684975    -12.171102    -3.695538    -0.700201    84.024483    2.534955    -12.335296    -0.311119    -0.263153    0.945617    -0.582913    0.118152    26.828766    -4.626836    1.784639    -0.932627    -4.534730    11.623228    -0.646130    -4.473008    -11.885678    -4.397145    5.833258    5.109470    -4.212731    -3.643039    22.466154    -3.656172    1.990081    -12.471351    -0.329530    4.611278    16.490683    2.084427    14.801130    -5.991127    -1.326477    7.335093    -26.855968    -4.200098    13.593509    9.441849    2.617497    3.018723    -3.562116    -3.750373    11.734548    -7.688660    6.322278    20.338711    0.000000    0.000000    0.000000    -2.264328    3.721221    0.335227    2.861562    -3.725758    -4.240302    5.624411    0.393782    -9.331248    0.000000    0.000000    0.000000    
99.344078    87.681282    -12.159447    -3.704012    -0.705317    84.042397    2.590382    -12.349860    -0.301692    -0.399331    0.914602    -0.578906    0.302732    26.896986    -4.660476    1.649572    -1.016377    -4.569613    11.793958    -0.613372    -4.500975    -11.990068    -4.410403    5.824749    5.100325    -4.189001    -3.631148    22.488737    -3.633685    1.985884    -12.576587    -0.194516    4.696138    16.721645    1.894290    14.695093    -5.986461    -1.325512    7.271107    -26.615610    -4.184120    13.641381    9.452451    2.645062    2.762559    -3.547382    -3.814441    11.934031    -7.678582    6.320584    20.389580    0.000000    0.000000    0.000000    -2.250709    3.742872    0.333707    2.850133    -3.779067    -4.235969    5.637954    0.428199    -9.324769    0.000000    0.000000    0.000000    
99.363495    87.676300    -12.147373    -3.709046    -0.706362    84.048462    2.607390    -12.375293    -0.305618    -0.432756    0.922108    -0.584857    0.262320    26.922144    -4.642477    1.676990    -1.058431    -4.550268    11.815549    -0.621779    -4.467085    -12.021526    -4.422592    5.800043    5.100235    -4.143472    -3.620617    22.480490    -3.601848    1.919856    -12.566091    -0.195023    4.666830    16.718487    1.869020    14.728959    -5.932684    -1.311978    7.179561    -26.541201    -4.161972    13.610374    9.469890    2.638066    2.767783    -3.571393    -3.760976    11.577791    -7.702012    6.178021    20.732758    0.000000    0.000000    0.000000    -2.246919    3.777932    0.349615    2.866471    -3.794947    -4.279469    5.623004    0.383009    -9.321644    0.000000    0.000000    0.000000    
